<svg id="Capa_1" enable-background="new 0 0 512 512" height="512" viewBox="0 0 512 512" width="512" xmlns="http://www.w3.org/2000/svg"><g><g><g><path d="m441.269 378.686h-182.438c-4.709 0-8.526-3.817-8.526-8.526v-182.438c0-4.709 3.817-8.526 8.526-8.526h182.438c4.709 0 8.526 3.817 8.526 8.526v182.438c-.001 4.709-3.818 8.526-8.526 8.526z" fill="#5169cd"/><path d="m449.796 187.719v182.437c0 4.715-3.82 8.526-8.526 8.526h-29.662c4.706 0 8.526-3.811 8.526-8.526v-182.437c0-4.706-3.82-8.526-8.526-8.526h29.662c4.707 0 8.526 3.82 8.526 8.526z" fill="#3351c5"/><path d="m366.068 378.686h-182.438c-4.709 0-8.526-3.817-8.526-8.526v-182.438c0-4.709 3.817-8.526 8.526-8.526h182.438c4.709 0 8.526 3.817 8.526 8.526v182.438c-.001 4.709-3.818 8.526-8.526 8.526z" fill="#fcb982"/><path d="m374.595 187.719v182.437c0 4.715-3.82 8.526-8.526 8.526h-29.662c4.706 0 8.526-3.811 8.526-8.526v-182.437c0-4.706-3.82-8.526-8.526-8.526h29.662c4.707 0 8.526 3.82 8.526 8.526z" fill="#f5a871"/><path d="m440.83 179.193h-213.428c-4.709 0-8.526-3.817-8.526-8.526v-85.732c0-4.709 3.817-8.526 8.526-8.526h213.428c4.709 0 8.526 3.817 8.526 8.526v85.733c0 4.708-3.817 8.525-8.526 8.525z" fill="#8dcafc"/><path d="m449.358 84.932v85.732c0 4.715-3.82 8.526-8.526 8.526h-29.662c4.706 0 8.526-3.811 8.526-8.526v-85.732c0-4.706-3.82-8.526-8.526-8.526h29.662c4.707 0 8.526 3.82 8.526 8.526z" fill="#64b9fc"/><path d="m375.092 213.169h-104.486c-3.243 0-5.872-2.629-5.872-5.872v-81.931c0-3.243 2.629-5.872 5.872-5.872h104.486c3.243 0 5.872 2.629 5.872 5.872v81.931c0 3.244-2.629 5.872-5.872 5.872z" fill="#f82f40"/><path d="m380.959 125.372v81.925c0 3.241-2.619 5.872-5.872 5.872h-29.043c3.241 0 5.872-2.631 5.872-5.872v-81.925c0-3.253-2.631-5.872-5.872-5.872h29.043c3.253 0 5.872 2.619 5.872 5.872z" fill="#e22334"/><path d="m471.643 409.056h-331.844c-8.917 0-16.432-6.653-17.513-15.504l-42.855-350.824c-1.181-9.672 5.702-18.471 15.374-19.653 9.674-1.177 18.471 5.702 19.653 15.374l40.96 335.32h316.224c9.744 0 17.643 7.899 17.643 17.643s-7.898 17.644-17.642 17.644z" fill="#e1dde1"/><path d="m82.688 69.386 5.088 41.654h35.549l-5.088-41.654z" fill="#cbc5cb"/><path d="m489.286 391.413c0 9.739-7.894 17.643-17.643 17.643h-30.206c9.749 0 17.643-7.904 17.643-17.643 0-9.749-7.894-17.643-17.643-17.643h30.206c9.749-.001 17.643 7.893 17.643 17.643z" fill="#cbc5cb"/><circle cx="184.585" cy="444.272" fill="#685e67" r="44.786"/><path d="m229.369 444.272c0 24.731-20.053 44.784-44.784 44.784-8.65 0-16.746-2.46-23.592-6.715 23.047-1.835 41.175-21.122 41.175-44.643 0-16.071-8.459-30.165-21.172-38.069 1.19-.091 2.379-.141 3.589-.141 24.731 0 44.784 20.053 44.784 44.784z" fill="#554e55"/><circle cx="405.01" cy="444.272" fill="#685e67" r="44.786"/><path d="m449.794 444.272c0 24.731-20.053 44.784-44.784 44.784-8.65 0-16.746-2.46-23.592-6.715 23.047-1.835 41.175-21.122 41.175-44.643 0-16.071-8.459-30.165-21.172-38.069 1.19-.091 2.379-.141 3.589-.141 24.731 0 44.784 20.053 44.784 44.784z" fill="#554e55"/><path d="m119.918 83.866h-97.626c-8.17 0-14.792-6.623-14.792-14.792 0-8.17 6.623-14.792 14.792-14.792h97.626c8.17 0 14.792 6.623 14.792 14.792 0 8.17-6.623 14.792-14.792 14.792z" fill="#f82f40"/><path d="m134.714 69.072c0 4.093-1.653 7.783-4.335 10.465-2.682 2.672-6.372 4.325-10.465 4.325h-25.315c4.083 0 7.783-1.653 10.455-4.325 2.682-2.682 4.335-6.372 4.335-10.465 0-8.166-6.624-14.79-14.79-14.79h25.315c8.176 0 14.8 6.624 14.8 14.79z" fill="#e22334"/></g><g><circle cx="184.585" cy="444.272" fill="#f82f40" r="19.786"/></g><circle cx="405.01" cy="444.272" fill="#f82f40" r="19.786"/></g><g><path d="m510.23 120.666c-1.425-1.688-3.521-2.661-5.73-2.661h-47.644v-33.07c0-8.836-7.189-16.025-16.026-16.025h-213.428c-8.837 0-16.026 7.189-16.026 16.025v33.07h-79.644l-3.454-28.271c8.16-3.314 13.931-11.323 13.931-20.659 0-11.225-8.341-20.534-19.15-22.066l-1.157-9.469c-1.682-13.754-14.239-23.594-28.007-21.908-13.762 1.681-23.59 14.245-21.909 28.007l.384 3.145h-50.078c-12.292-.002-22.292 9.998-22.292 22.29s10 22.292 22.292 22.292h55.526l37.027 303.093c1.537 12.595 12.265 22.092 24.955 22.092h.483c-5.05 8.042-7.984 17.543-7.984 27.721 0 28.831 23.455 52.286 52.286 52.286s52.286-23.455 52.286-52.286c0-10.178-2.933-19.678-7.984-27.721h131.797c-1.319 2.108-2.5 4.325-3.523 6.645-1.671 3.79.046 8.217 3.835 9.889 3.791 1.67 8.218-.046 9.889-3.836 5.965-13.524 19.36-22.263 34.125-22.263 20.56 0 37.286 16.727 37.286 37.286s-16.726 37.286-37.286 37.286c-15.054 0-28.552-8.969-34.388-22.849-1.605-3.818-6-5.609-9.82-4.007-3.818 1.605-5.612 6.003-4.007 9.821 8.182 19.46 27.107 32.034 48.215 32.034 28.831 0 52.286-23.455 52.286-52.286 0-10.178-2.933-19.678-7.984-27.721h22.328c13.868 0 25.15-11.277 25.15-25.14s-11.282-25.141-25.15-25.141h-.463l40.717-239.509c.37-2.176-.238-4.406-1.664-6.094zm-282.828-36.757h213.429c.566 0 1.026.46 1.026 1.025v33.07h-55.613c-2.396-3.617-6.497-6.01-11.151-6.01h-19.685c-4.142 0-7.5 3.357-7.5 7.5s3.358 7.5 7.5 7.5h18.057v78.675h-101.23v-78.675h47.778c4.142 0 7.5-3.357 7.5-7.5s-3.358-7.5-7.5-7.5h-49.406c-4.654 0-8.756 2.393-11.151 6.01h-33.079v-33.07c-.001-.565.459-1.025 1.025-1.025zm243.002 197.406h-13.11v-66.655h24.441zm-295.3-46.996c4.142 0 7.5-3.357 7.5-7.5v-12.159h28.772v66.655h-28.772v-19.102c0-4.143-3.358-7.5-7.5-7.5s-7.5 3.357-7.5 7.5v19.102h-15.922l-8.142-66.655h24.065v12.159c-.001 4.143 3.357 7.5 7.499 7.5zm51.272-101.314h30.858v38.688h-29.832c-.566 0-1.026-.46-1.026-1.025zm188.939 0-4.774 38.688h-22.077v-38.688zm-33.222 85.664c1.656-1.023 3.076-2.388 4.15-4.009h18.996l-8.224 66.655h-14.922zm6.371-19.009v-12.967h20.226l-1.6 12.967zm-21.371 81.655h-47.247l2.727-60.645h44.519v60.645zm-62.261 0h-78.456v-66.655h33.079c2.396 3.617 6.497 6.01 11.151 6.01h36.953zm-47.598-94.619v12.964h-30.858v-12.964zm-45.858 12.964h-28.772v-11.938c0-.566.46-1.026 1.026-1.026h27.746zm-43.772 96.655v69.955h-5.544l-8.545-69.955zm15 69.955v-69.955h28.772v69.955zm43.772-69.955h77.781l-3.146 69.955h-74.636v-69.955zm92.796 0h47.921v69.955h-51.067zm62.921 0h13.071l-8.632 69.955h-4.439zm28.185 0h32.017v69.955h-40.648zm47.016 0h10.56l-10.56 62.114zm-15-15h-30.166l8.224-66.655h21.942zm-20.09-81.655 1.6-12.967h17.027c.064 0 .126-.009.19-.01.083.003.165.012.248.012.565 0 1.026.46 1.026 1.026v11.938h-20.091zm19.652-28.992c0 .565-.46 1.025-1.026 1.025h-15.176l4.774-38.688h11.428zm-230.48-37.663v37.663 1.028h-27.746c-8.837 0-16.026 7.189-16.026 16.026v11.938h-25.897l-8.142-66.655zm-124.5-91.186c-.678-5.553 3.287-10.621 8.835-11.299 5.556-.688 10.624 3.29 11.302 8.838l.907 7.424h-20.438zm-71.876 27.255c0-4.021 3.271-7.292 7.292-7.292h97.626c4.021 0 7.292 3.271 7.292 7.292s-3.271 7.292-7.292 7.292h-97.626c-4.021 0-7.292-3.271-7.292-7.292zm169.585 412.483c-20.56 0-37.286-16.727-37.286-37.286s16.726-37.286 37.286-37.286 37.286 16.727 37.286 37.286-16.726 37.286-37.286 37.286zm297.205-90.146c0 5.591-4.553 10.14-10.15 10.14h-36.54c-8.516-6.016-18.893-9.565-30.09-9.565-11.014 0-21.483 3.467-30.129 9.565h-160.206c-8.516-6.016-18.893-9.565-30.09-9.565s-21.573 3.549-30.09 9.565h-14.695c-5.118 0-9.445-3.83-10.065-8.909l-36.805-301.276h20.437l34.609 283.313c.46 3.763 3.654 6.591 7.445 6.591h316.22c5.596 0 10.149 4.549 10.149 10.141zm2.496-191.751h-26.991v-11.938c0-3.286-.997-6.342-2.7-8.888 1.427-2.395 2.262-5.182 2.262-8.167v-37.663h38.761z"/><path d="m295.793 166.332c0 4.143 3.358 7.5 7.5 7.5h37.072c4.142 0 7.5-3.357 7.5-7.5s-3.358-7.5-7.5-7.5h-37.072c-4.142 0-7.5 3.357-7.5 7.5z"/><path d="m184.585 416.985c-15.045 0-27.286 12.24-27.286 27.286s12.24 27.286 27.286 27.286 27.286-12.24 27.286-27.286-12.241-27.286-27.286-27.286zm0 39.572c-6.774 0-12.286-5.512-12.286-12.286s5.511-12.286 12.286-12.286 12.286 5.512 12.286 12.286-5.512 12.286-12.286 12.286z"/><path d="m405.01 471.557c15.045 0 27.286-12.24 27.286-27.286s-12.24-27.286-27.286-27.286-27.286 12.24-27.286 27.286 12.241 27.286 27.286 27.286zm0-39.572c6.774 0 12.286 5.512 12.286 12.286s-5.511 12.286-12.286 12.286-12.286-5.512-12.286-12.286 5.512-12.286 12.286-12.286z"/></g></g></svg>